<?xml version="1.0" standalone="no"?>
<!DOCTYPE svg PUBLIC "-//W3C//DTD SVG 20010904//EN"
 "http://www.w3.org/TR/2001/REC-SVG-20010904/DTD/svg10.dtd">
<svg version="1.0" xmlns="http://www.w3.org/2000/svg"
 width="1680.000000pt" height="1680.000000pt" viewBox="0 0 1680.000000 1680.000000"
 preserveAspectRatio="xMidYMid meet">
<metadata>
Created by potrace 1.11, written by Peter Selinger 2001-2013
</metadata>
<g transform="translate(0.000000,1680.000000) scale(0.100000,-0.100000)"
fill="#000000" stroke="none">
<path d="M8008 12905 c-2 -2 -41 -6 -88 -9 -47 -4 -103 -9 -125 -11 -22 -3
-62 -7 -90 -10 -27 -3 -75 -9 -105 -15 -30 -5 -71 -12 -90 -14 -147 -18 -440
-92 -680 -172 -163 -54 -500 -194 -531 -220 -8 -8 -22 -14 -30 -14 -8 0 -24
-7 -36 -15 -12 -8 -50 -30 -85 -49 -35 -18 -79 -43 -98 -54 -19 -12 -48 -29
-65 -38 -29 -16 -249 -160 -270 -176 -5 -5 -46 -35 -90 -68 -216 -163 -355
-285 -355 -313 0 -34 253 -441 276 -445 11 -2 37 14 64 39 25 22 65 60 90 83
288 267 756 550 1170 709 117 45 319 110 377 121 10 2 45 11 78 19 65 17 68
18 230 47 201 36 255 43 400 57 155 14 519 8 679 -12 15 -1 54 -6 89 -10 153
-16 387 -64 547 -111 47 -14 93 -27 102 -29 35 -8 228 -79 342 -127 186 -77
374 -173 531 -271 93 -58 228 -148 235 -156 3 -4 16 -14 30 -23 22 -13 66 -47
176 -136 399 -320 769 -782 1007 -1257 96 -191 227 -504 227 -541 0 -8 7 -28
15 -43 8 -16 17 -44 20 -62 3 -19 23 -101 45 -184 22 -82 42 -166 45 -185 3
-19 10 -57 15 -85 10 -54 19 -110 25 -165 3 -19 7 -51 10 -70 33 -233 39 -690
11 -835 -2 -12 -7 -50 -11 -85 -9 -93 -30 -228 -61 -395 -3 -16 -14 -39 -25
-50 -19 -19 -35 -19 -957 -18 -515 0 -964 2 -997 4 -88 4 -197 34 -288 79
-414 207 -593 746 -408 1226 84 218 252 393 451 472 191 75 422 80 611 14 116
-41 302 -153 382 -232 58 -56 74 -48 188 92 48 59 143 169 169 197 32 34 88
107 92 121 12 35 -71 117 -225 220 -143 95 -379 192 -522 214 -22 3 -53 8 -70
11 -115 19 -181 23 -335 20 -96 -1 -184 -5 -195 -8 -11 -3 -41 -8 -67 -11 -73
-10 -213 -53 -323 -100 -335 -141 -585 -380 -745 -711 -102 -211 -148 -411
-152 -652 -5 -393 108 -742 330 -1013 116 -142 287 -285 437 -367 179 -98 360
-151 575 -170 98 -8 2347 -9 2380 0 14 3 35 15 47 26 28 27 98 209 118 311 2
8 11 47 20 85 40 171 69 326 99 535 37 252 43 765 11 1025 -2 22 -9 83 -15
135 -7 52 -13 106 -16 120 -11 67 -15 88 -24 130 -5 25 -12 57 -15 73 -7 40
-13 65 -31 132 -21 81 -33 134 -40 169 -3 16 -24 77 -45 135 -22 58 -53 142
-68 186 -16 44 -54 145 -86 225 -248 626 -737 1279 -1290 1722 -177 142 -469
348 -493 348 -6 0 -12 4 -14 8 -1 4 -23 20 -48 35 -25 15 -64 43 -87 61 -23
19 -66 42 -95 51 -29 9 -84 32 -123 50 -159 74 -192 88 -299 130 -171 66 -442
151 -539 171 -10 2 -27 6 -37 9 -10 3 -28 8 -40 10 -12 2 -29 6 -38 9 -16 5
-108 22 -252 47 -30 5 -75 12 -100 15 -25 3 -56 7 -70 10 -14 2 -45 6 -70 9
-25 3 -63 8 -85 11 -43 6 -601 14 -607 9z"/>
<path d="M4983 11465 c-134 -140 -378 -465 -503 -670 -309 -505 -543 -1146
-615 -1685 -3 -25 -8 -56 -10 -70 -43 -283 -54 -858 -20 -1052 2 -13 9 -63 15
-113 15 -122 24 -185 45 -300 34 -192 110 -470 187 -680 232 -636 580 -1185
1052 -1658 72 -73 160 -157 195 -187 35 -30 69 -59 75 -65 66 -61 291 -228
431 -319 66 -43 132 -87 147 -97 15 -11 29 -19 32 -19 2 0 48 -25 102 -56 115
-67 316 -164 464 -224 58 -23 114 -46 125 -51 51 -23 332 -111 440 -138 190
-47 400 -86 580 -106 28 -3 66 -8 85 -10 203 -25 739 -25 866 -1 11 2 47 7 80
10 32 3 70 8 84 11 14 2 43 7 65 10 22 3 78 13 125 21 47 9 96 18 110 21 202
36 604 163 806 253 438 196 717 365 1078 653 384 306 776 770 1041 1232 71
124 201 382 210 416 10 42 -13 51 -117 49 -51 -1 -171 -1 -265 -1 -124 1 -179
-2 -193 -11 -12 -7 -44 -56 -72 -108 -226 -420 -560 -824 -945 -1142 -291
-241 -670 -465 -1030 -607 -205 -82 -522 -177 -653 -196 -24 -4 -47 -8 -50
-10 -3 -2 -24 -6 -46 -9 -22 -4 -49 -8 -59 -10 -11 -2 -63 -9 -115 -16 -52 -7
-103 -14 -112 -15 -36 -7 -269 -18 -383 -18 -109 0 -273 8 -350 18 -16 2 -59
6 -95 10 -36 3 -72 8 -80 10 -8 3 -33 7 -55 10 -22 2 -51 7 -65 10 -14 2 -36
7 -50 10 -14 2 -40 7 -57 10 -18 3 -63 12 -100 21 -38 9 -75 17 -83 19 -96 23
-405 122 -465 149 -16 8 -59 26 -95 41 -202 83 -432 209 -645 351 -259 172
-484 368 -716 621 -62 67 -88 98 -210 253 -59 75 -223 319 -268 400 -97 174
-155 288 -196 390 -59 144 -73 176 -100 220 -12 19 -22 52 -23 73 -1 21 -11
59 -22 84 -11 25 -23 60 -26 77 -8 51 -24 106 -55 201 -17 49 -32 113 -35 141
-2 29 -10 81 -18 116 -25 108 -32 156 -53 383 -5 44 -8 186 -8 315 1 258 7
358 36 555 6 39 12 86 15 105 2 19 6 42 9 50 2 8 7 33 11 55 23 157 146 557
235 768 89 211 261 537 283 537 10 0 512 -798 599 -950 14 -25 296 -480 368
-595 21 -33 50 -80 65 -105 15 -25 57 -89 93 -143 36 -54 73 -110 81 -125 8
-15 35 -61 60 -102 25 -41 50 -83 55 -92 6 -9 59 -93 119 -185 176 -270 229
-352 300 -463 79 -124 101 -151 118 -145 7 3 38 45 70 93 128 199 362 558 462
712 258 394 301 460 306 460 3 0 5 -433 4 -962 -1 -921 0 -962 18 -980 17 -17
40 -18 311 -18 237 0 297 3 313 14 19 14 19 42 20 1516 1 1218 -2 1504 -12
1515 -10 10 -87 13 -346 13 -183 0 -341 -4 -352 -7 -17 -7 -63 -78 -252 -391
-32 -52 -61 -97 -64 -100 -4 -3 -20 -29 -36 -58 -79 -145 -427 -705 -439 -705
-11 -1 -103 132 -104 150 -1 6 -11 24 -24 40 -18 22 -474 763 -924 1500 -471
774 -680 1112 -699 1133 -12 13 -23 5 -81 -55z"/>
<path d="M5316 9621 c-4 -5 -6 -615 -5 -1355 1 -1073 4 -1347 14 -1356 18 -15
631 -12 644 4 6 7 9 339 8 857 l-2 847 -35 53 c-20 30 -41 63 -47 74 -22 38
-317 510 -436 698 -65 103 -123 187 -127 187 -5 0 -11 -4 -14 -9z"/>
</g>
</svg>
